<svg width="985" height="282" viewBox="0 0 985 282" fill="none" xmlns="http://www.w3.org/2000/svg">
<path d="M247.754 34.2817C255.185 34.2817 262.336 35.5436 269.206 38.0674C276.217 40.451 282.175 44.0965 287.083 49.0039L262.476 73.611C259.952 71.0872 257.428 69.615 254.904 69.1943C252.521 68.7737 250.137 68.5634 247.754 68.5634C242.846 68.5634 238.289 69.4747 234.083 71.2975C229.877 72.98 226.231 75.3636 223.146 78.4483C220.202 81.5329 217.818 85.1784 215.996 89.3848C214.313 93.5911 213.472 98.148 213.472 103.055V181.504H178.98V58.8888H159.42L174.143 34.2817H213.472V44.1666C215.855 42.9047 218.52 41.7129 221.464 40.5912C224.408 39.3293 227.423 38.2777 230.508 37.4364C233.592 36.455 236.607 35.6838 239.551 35.1229C242.496 34.5621 245.23 34.2817 247.754 34.2817Z" fill="black"/>
<path d="M408.495 122.615C406.812 131.028 403.798 138.879 399.451 146.17C395.105 153.321 389.707 159.561 383.257 164.889C376.947 170.076 369.797 174.213 361.805 177.297C353.813 180.242 345.33 181.714 336.356 181.714C326.261 181.714 316.727 179.821 307.753 176.035C298.78 172.109 290.928 166.852 284.198 160.262C277.608 153.531 272.35 145.68 268.424 136.706C264.638 127.733 262.745 118.128 262.745 107.893C262.745 97.7974 264.638 88.2631 268.424 79.2895C272.35 70.316 277.608 62.5343 284.198 55.9443C290.928 49.2142 298.78 43.9563 307.753 40.1706C316.727 36.2446 326.261 34.2817 336.356 34.2817C345.33 34.2817 353.813 35.824 361.805 38.9087C369.797 41.8531 376.947 45.9893 383.257 51.3174C389.707 56.5052 395.105 62.6745 399.451 69.8253C403.798 76.976 406.812 84.7578 408.495 93.1705H372.741C369.797 86.0197 365.029 80.2009 358.44 75.7141C351.99 71.0872 344.629 68.7737 336.356 68.7737C330.888 68.7737 325.77 69.8253 321.003 71.9284C316.236 73.8914 312.03 76.6956 308.384 80.3411C304.879 83.8464 302.075 87.9826 299.971 92.7498C298.008 97.3768 297.027 102.424 297.027 107.893C297.027 113.361 298.008 118.479 299.971 123.246C302.075 128.013 304.879 132.219 308.384 135.865C312.03 139.37 316.236 142.174 321.003 144.278C325.77 146.24 330.888 147.222 336.356 147.222C344.629 147.222 351.99 144.979 358.44 140.492C365.029 135.865 369.797 129.906 372.741 122.615H408.495Z" fill="black"/>
<path d="M473.113 34.2817C481.947 34.2817 490.219 35.9642 497.931 39.3293C505.642 42.6944 512.372 47.2512 518.121 52.9999C523.87 58.7486 528.427 65.4787 531.792 73.1903C535.157 80.902 536.839 89.1744 536.839 98.0078V181.504H502.558V98.0078C502.558 93.9416 501.786 90.1559 500.244 86.6506C498.702 83.0051 496.599 79.8504 493.935 77.1864C491.271 74.5223 488.116 72.4192 484.47 70.8769C480.965 69.3345 477.179 68.5634 473.113 68.5634C469.047 68.5634 465.191 69.3345 461.546 70.8769C458.041 72.4192 454.956 74.5223 452.292 77.1864C449.628 79.8504 447.525 83.0051 445.982 86.6506C444.44 90.1559 443.669 93.9416 443.669 98.0078V181.504H409.387V24.3968H389.197L403.919 0H443.669V41.6428C448.156 39.2592 452.853 37.4364 457.76 36.1745C462.668 34.9126 467.785 34.2817 473.113 34.2817Z" fill="black"/>
<path d="M575.738 68.984V112.94C575.738 117.988 576.86 122.615 579.103 126.821C581.347 131.028 584.151 134.603 587.516 137.547C590.881 140.492 594.526 142.805 598.452 144.488C602.519 146.17 606.374 147.012 610.02 147.012H639.464V181.504H610.02C601.467 181.504 593.054 179.541 584.782 175.615C576.509 171.689 569.148 166.501 562.698 160.051C556.249 153.602 551.061 146.311 547.135 138.178C543.209 129.906 541.246 121.493 541.246 112.94V25.0277H522.107L536.619 0.420629H575.738V34.9126H639.464V68.984H575.738Z" fill="black"/>
<path d="M785.171 122.405C783.489 130.817 780.404 138.669 775.917 145.96C771.571 153.111 766.243 159.35 759.933 164.678C753.624 169.866 746.473 173.932 738.481 176.877C730.489 179.821 722.006 181.293 713.033 181.293C702.797 181.293 693.193 179.4 684.219 175.615C675.386 171.689 667.604 166.431 660.874 159.841C654.284 153.111 649.026 145.329 645.1 136.496C641.314 127.522 639.422 117.918 639.422 107.682C639.422 97.4469 641.314 87.9125 645.1 79.0792C649.026 70.1057 654.284 62.324 660.874 55.734C667.604 49.0039 675.386 43.7459 684.219 39.9602C693.193 36.0343 702.797 34.0714 713.033 34.0714C720.604 34.0714 727.825 35.1931 734.695 37.4364C741.565 39.5396 747.875 42.5542 753.624 46.4801C759.513 50.406 764.7 55.1031 769.187 60.5713C773.814 65.8994 777.53 71.7882 780.334 78.2379C781.035 79.7803 781.596 81.1824 782.016 82.4443L778.651 88.1229L766.453 107.682H720.814L738.901 78.4483C735.396 75.2234 731.4 72.7697 726.913 71.0872C722.567 69.2644 717.94 68.353 713.033 68.353C707.564 68.353 702.447 69.4046 697.679 71.5078C692.912 73.4708 688.706 76.275 685.06 79.9205C681.555 83.4258 678.751 87.562 676.648 92.3292C674.685 97.0964 673.703 102.214 673.703 107.682C673.703 113.151 674.685 118.268 676.648 123.035C678.751 127.803 681.555 132.009 685.06 135.655C688.706 139.16 692.912 141.964 697.679 144.067C702.447 146.03 707.564 147.012 713.033 147.012C721.305 147.012 728.666 144.698 735.116 140.071C741.706 135.444 746.473 129.555 749.417 122.405H785.171Z" fill="black"/>
<path d="M916.982 154.162L906.467 164.678C900.157 169.866 893.535 174.213 885.543 177.297C877.551 180.242 869.069 181.714 860.095 181.714C850 181.714 840.466 179.821 831.492 176.035C822.518 172.109 814.667 166.852 807.936 160.262C801.346 153.531 796.089 145.68 792.163 136.706C788.377 127.733 786.484 118.128 786.484 107.893C786.484 97.7974 788.377 88.2631 792.163 79.2895C796.089 70.316 801.346 62.5343 807.936 55.9443C814.667 49.2142 822.518 43.9563 831.492 40.1706C840.466 36.2446 850 34.2817 860.095 34.2817C869.069 34.2817 877.551 35.824 885.543 38.9087C893.535 41.8531 900.686 45.9893 906.996 51.3174C913.445 56.5052 921.189 67.9324 921.189 67.9324L891.744 84.7578C891.744 84.7578 888.768 80.2009 882.178 75.7141C875.729 71.0872 868.367 68.7737 860.095 68.7737C854.627 68.7737 849.509 69.8253 844.742 71.9284C839.975 73.8914 835.768 76.6956 832.123 80.3411C828.618 83.8464 825.813 87.9826 823.71 92.7498C821.747 97.3768 820.766 102.424 820.766 107.893C820.766 113.361 821.747 118.479 823.71 123.246C825.813 128.013 828.618 132.219 832.123 135.865C835.768 139.37 839.975 142.174 844.742 144.278C849.509 146.24 854.627 147.222 860.095 147.222C868.367 147.222 875.729 144.979 882.178 140.492L887.538 135.865L916.982 154.162Z" fill="black"/>
<path d="M974.093 120.343L929.523 120.343L942.686 146.537L874.919 110.048L942.686 73.5578L929.523 99.7523L974.093 99.7523V120.343Z" fill="url(#paint0_linear_20_427)"/>
<path d="M275.562 153.523C309.162 147.191 304.961 113.57 307.063 111.468L336.507 138.809C312.952 148.904 307.063 169.656 307.063 178.769C298.709 155.795 277.909 153.127 275.562 153.523C275.546 153.526 275.531 153.529 275.516 153.531C275.53 153.528 275.545 153.525 275.562 153.523Z" fill="url(#paint1_linear_20_427)"/>
<path d="M338.221 237.863C323.408 207.046 292.021 219.806 289.446 218.32L308.235 182.802C324.083 202.942 345.651 203.26 354.454 200.901C334.424 214.917 337.231 235.698 338.221 237.863C338.228 237.877 338.234 237.891 338.241 237.905C338.234 237.892 338.228 237.878 338.221 237.863Z" fill="url(#paint2_linear_20_427)"/>
<circle cx="336.552" cy="109.409" r="29.7744" transform="rotate(45 336.552 109.409)" fill="url(#paint3_linear_20_427)"/>
<circle cx="273.499" cy="189.373" r="35.7539" transform="rotate(45 273.499 189.373)" fill="url(#paint4_linear_20_427)"/>
<circle cx="370.244" cy="231.436" r="35.7539" transform="rotate(45 370.244 231.436)" fill="url(#paint5_linear_20_427)"/>
<defs>
<linearGradient id="paint0_linear_20_427" x1="902.286" y1="82.6803" x2="957.021" y2="137.415" gradientUnits="userSpaceOnUse">
<stop stop-color="#1EB6F7"/>
<stop offset="1" stop-color="#1167A4"/>
</linearGradient>
<linearGradient id="paint1_linear_20_427" x1="306.011" y1="111.468" x2="306.011" y2="178.769" gradientUnits="userSpaceOnUse">
<stop stop-color="#D0D0D0"/>
<stop offset="1" stop-color="white"/>
</linearGradient>
<linearGradient id="paint2_linear_20_427" x1="289.718" y1="219.335" x2="354.726" y2="201.916" gradientUnits="userSpaceOnUse">
<stop stop-color="#D0D0D0"/>
<stop offset="1" stop-color="white"/>
</linearGradient>
<linearGradient id="paint3_linear_20_427" x1="336.552" y1="79.6347" x2="336.552" y2="139.183" gradientUnits="userSpaceOnUse">
<stop stop-color="#1167A4"/>
<stop offset="1" stop-color="#1EB6F7"/>
</linearGradient>
<linearGradient id="paint4_linear_20_427" x1="273.499" y1="153.619" x2="273.499" y2="225.127" gradientUnits="userSpaceOnUse">
<stop stop-color="#1167A4"/>
<stop offset="1" stop-color="#1EB6F7"/>
</linearGradient>
<linearGradient id="paint5_linear_20_427" x1="370.244" y1="195.682" x2="370.244" y2="267.19" gradientUnits="userSpaceOnUse">
<stop stop-color="#1167A4"/>
<stop offset="1" stop-color="#1EB6F7"/>
</linearGradient>
</defs>
</svg>
