<svg width="235" height="68" viewBox="0 0 235 68" fill="none" xmlns="http://www.w3.org/2000/svg">
<path d="M58.8999 8.15C60.6666 8.15 62.3666 8.45 63.9999 9.05C65.6666 9.61667 67.0832 10.4833 68.2499 11.65L62.3999 17.5C61.7999 16.9 61.1999 16.55 60.5999 16.45C60.0332 16.35 59.4666 16.3 58.8999 16.3C57.7332 16.3 56.6499 16.5167 55.6499 16.95C54.6499 17.35 53.7832 17.9167 53.0499 18.65C52.3499 19.3833 51.7832 20.25 51.3499 21.25C50.9499 22.25 50.7499 23.3333 50.7499 24.5V43.15H42.5499V14H37.8999L41.3999 8.15H50.7499V10.5C51.3166 10.2 51.9499 9.91667 52.6499 9.65C53.3499 9.35 54.0666 9.1 54.7999 8.9C55.5332 8.66667 56.2499 8.48333 56.9499 8.35C57.6499 8.21667 58.2999 8.15 58.8999 8.15Z" fill="white"/>
<path d="M97.114 29.15C96.714 31.15 95.9973 33.0167 94.964 34.75C93.9306 36.45 92.6473 37.9333 91.114 39.2C89.614 40.4333 87.914 41.4167 86.014 42.15C84.114 42.85 82.0973 43.2 79.964 43.2C77.564 43.2 75.2973 42.75 73.164 41.85C71.0306 40.9167 69.164 39.6667 67.564 38.1C65.9973 36.5 64.7473 34.6333 63.814 32.5C62.914 30.3667 62.464 28.0833 62.464 25.65C62.464 23.25 62.914 20.9833 63.814 18.85C64.7473 16.7167 65.9973 14.8667 67.564 13.3C69.164 11.7 71.0306 10.45 73.164 9.55C75.2973 8.61667 77.564 8.15 79.964 8.15C82.0973 8.15 84.114 8.51667 86.014 9.25C87.914 9.95 89.614 10.9333 91.114 12.2C92.6473 13.4333 93.9306 14.9 94.964 16.6C95.9973 18.3 96.714 20.15 97.114 22.15H88.614C87.914 20.45 86.7806 19.0667 85.214 18C83.6806 16.9 81.9306 16.35 79.964 16.35C78.664 16.35 77.4473 16.6 76.314 17.1C75.1806 17.5667 74.1806 18.2333 73.314 19.1C72.4806 19.9333 71.814 20.9167 71.314 22.05C70.8473 23.15 70.614 24.35 70.614 25.65C70.614 26.95 70.8473 28.1667 71.314 29.3C71.814 30.4333 72.4806 31.4333 73.314 32.3C74.1806 33.1333 75.1806 33.8 76.314 34.3C77.4473 34.7667 78.664 35 79.964 35C81.9306 35 83.6806 34.4667 85.214 33.4C86.7806 32.3 87.914 30.8833 88.614 29.15H97.114Z" fill="white"/>
<path d="M112.476 8.15C114.576 8.15 116.543 8.55 118.376 9.35C120.209 10.15 121.809 11.2333 123.176 12.6C124.543 13.9667 125.626 15.5667 126.426 17.4C127.226 19.2333 127.626 21.2 127.626 23.3V43.15H119.476V23.3C119.476 22.3333 119.293 21.4333 118.926 20.6C118.559 19.7333 118.059 18.9833 117.426 18.35C116.793 17.7167 116.043 17.2167 115.176 16.85C114.343 16.4833 113.443 16.3 112.476 16.3C111.509 16.3 110.593 16.4833 109.726 16.85C108.893 17.2167 108.159 17.7167 107.526 18.35C106.893 18.9833 106.393 19.7333 106.026 20.6C105.659 21.4333 105.476 22.3333 105.476 23.3V43.15H97.3261V5.8H92.5261L96.0261 0H105.476V9.9C106.543 9.33333 107.659 8.9 108.826 8.6C109.993 8.3 111.209 8.15 112.476 8.15Z" fill="white"/>
<path d="M136.874 16.4V26.85C136.874 28.05 137.14 29.15 137.674 30.15C138.207 31.15 138.874 32 139.674 32.7C140.474 33.4 141.34 33.95 142.274 34.35C143.24 34.75 144.157 34.95 145.024 34.95H152.024V43.15H145.024C142.99 43.15 140.99 42.6833 139.024 41.75C137.057 40.8167 135.307 39.5833 133.774 38.05C132.24 36.5167 131.007 34.7833 130.074 32.85C129.14 30.8833 128.674 28.8833 128.674 26.85V5.95H124.124L127.574 0.0999987H136.874V8.3H152.024V16.4H136.874Z" fill="white"/>
<path d="M186.664 29.1C186.264 31.1 185.53 32.9667 184.464 34.7C183.43 36.4 182.164 37.8833 180.664 39.15C179.164 40.3833 177.464 41.35 175.564 42.05C173.664 42.75 171.647 43.1 169.514 43.1C167.08 43.1 164.797 42.65 162.664 41.75C160.564 40.8167 158.714 39.5667 157.114 38C155.547 36.4 154.297 34.55 153.364 32.45C152.464 30.3167 152.014 28.0333 152.014 25.6C152.014 23.1667 152.464 20.9 153.364 18.8C154.297 16.6667 155.547 14.8167 157.114 13.25C158.714 11.65 160.564 10.4 162.664 9.5C164.797 8.56667 167.08 8.1 169.514 8.1C171.314 8.1 173.03 8.36667 174.664 8.9C176.297 9.4 177.797 10.1167 179.164 11.05C180.564 11.9833 181.797 13.1 182.864 14.4C183.964 15.6667 184.847 17.0667 185.514 18.6C185.68 18.9667 185.814 19.3 185.914 19.6L185.114 20.95L182.214 25.6H171.364L175.664 18.65C174.83 17.8833 173.88 17.3 172.814 16.9C171.78 16.4667 170.68 16.25 169.514 16.25C168.214 16.25 166.997 16.5 165.864 17C164.73 17.4667 163.73 18.1333 162.864 19C162.03 19.8333 161.364 20.8167 160.864 21.95C160.397 23.0833 160.164 24.3 160.164 25.6C160.164 26.9 160.397 28.1167 160.864 29.25C161.364 30.3833 162.03 31.3833 162.864 32.25C163.73 33.0833 164.73 33.75 165.864 34.25C166.997 34.7167 168.214 34.95 169.514 34.95C171.48 34.95 173.23 34.4 174.764 33.3C176.33 32.2 177.464 30.8 178.164 29.1H186.664Z" fill="white"/>
<path d="M218 36.65L215.5 39.15C214 40.3833 212.426 41.4167 210.526 42.15C208.626 42.85 206.609 43.2 204.476 43.2C202.076 43.2 199.809 42.75 197.676 41.85C195.542 40.9167 193.676 39.6667 192.076 38.1C190.509 36.5 189.259 34.6333 188.326 32.5C187.426 30.3667 186.976 28.0833 186.976 25.65C186.976 23.25 187.426 20.9833 188.326 18.85C189.259 16.7167 190.509 14.8667 192.076 13.3C193.676 11.7 195.542 10.45 197.676 9.55C199.809 8.61667 202.076 8.15 204.476 8.15C206.609 8.15 208.626 8.51667 210.526 9.25C212.426 9.95 214.126 10.9333 215.626 12.2C217.159 13.4333 219 16.15 219 16.15L212 20.15C212 20.15 211.292 19.0667 209.726 18C208.192 16.9 206.442 16.35 204.476 16.35C203.176 16.35 201.959 16.6 200.826 17.1C199.692 17.5667 198.692 18.2333 197.826 19.1C196.992 19.9333 196.326 20.9167 195.826 22.05C195.359 23.15 195.126 24.35 195.126 25.65C195.126 26.95 195.359 28.1667 195.826 29.3C196.326 30.4333 196.992 31.4333 197.826 32.3C198.692 33.1333 199.692 33.8 200.826 34.3C201.959 34.7667 203.176 35 204.476 35C206.442 35 208.192 34.4667 209.726 33.4L211 32.3L218 36.65Z" fill="white"/>
<path d="M231.577 28.6099L220.981 28.6099L224.111 34.8373L208 26.1624L224.111 17.4874L220.981 23.7148L231.577 23.7148V28.6099Z" fill="url(#paint0_linear_40_2)"/>
<path d="M65.5 36.5C73.5 35 72.5 27 73 26.5L80 33C74.4 35.4 73 40.3333 73 42.5C71 37 66 36.3952 65.5 36.5Z" fill="url(#paint1_linear_40_2)"/>
<path d="M80.4122 56.5588C76.8927 49.2196 69.4242 52.2561 68.8118 51.9025L73.2786 43.4587C77.0462 48.2467 82.1738 48.3222 84.2666 47.7614C79.4716 51.1168 80.1816 56.1029 80.4122 56.5588Z" fill="url(#paint2_linear_40_2)"/>
<circle cx="80.0107" cy="26.0104" r="7.07845" transform="rotate(45 80.0107 26.0104)" fill="url(#paint3_linear_40_2)"/>
<circle cx="65.0205" cy="45.0208" r="8.5" transform="rotate(45 65.0205 45.0208)" fill="url(#paint4_linear_40_2)"/>
<circle cx="88.0205" cy="55.0208" r="8.5" transform="rotate(45 88.0205 55.0208)" fill="url(#paint5_linear_40_2)"/>
<path d="M37.6 26.248V42.952H29.776V40.36C28.464 41.192 27.056 41.832 25.552 42.28C24.048 42.728 22.48 42.952 20.848 42.952C18.544 42.952 16.368 42.52 14.32 41.656C12.272 40.76 10.48 39.56 8.944 38.056C7.44 36.552 6.24 34.776 5.344 32.728C4.48 30.68 4.048 28.504 4.048 26.2C4.048 23.896 4.48 21.72 5.344 19.672C6.24 17.624 7.44 15.848 8.944 14.344C10.48 12.808 12.272 11.608 14.32 10.744C16.368 9.848 18.544 9.4 20.848 9.4C23.152 9.4 25.328 9.848 27.376 10.744C29.424 11.608 31.2 12.808 32.704 14.344C34.208 15.848 35.392 17.624 36.256 19.672C37.152 21.72 37.6 23.896 37.6 26.2V26.248ZM20.848 35.128C22.064 35.128 23.216 34.904 24.304 34.456C25.392 33.976 26.336 33.336 27.136 32.536C27.968 31.704 28.608 30.76 29.056 29.704C29.536 28.616 29.776 27.448 29.776 26.2C29.776 24.952 29.536 23.784 29.056 22.696C28.608 21.608 27.968 20.664 27.136 19.864C26.336 19.032 25.392 18.392 24.304 17.944C23.248 17.464 22.096 17.224 20.848 17.224C19.6 17.224 18.432 17.464 17.344 17.944C16.288 18.392 15.344 19.032 14.512 19.864C13.712 20.664 13.072 21.608 12.592 22.696C12.144 23.784 11.92 24.952 11.92 26.2C11.92 27.416 12.144 28.568 12.592 29.656C13.072 30.744 13.712 31.704 14.512 32.536C15.344 33.336 16.288 33.976 17.344 34.456C18.432 34.904 19.6 35.128 20.848 35.128Z" fill="white"/>
<defs>
<linearGradient id="paint0_linear_40_2" x1="214.506" y1="19.6561" x2="227.519" y2="32.6686" gradientUnits="userSpaceOnUse">
<stop stop-color="#1EB6F7"/>
<stop offset="1" stop-color="#1167A4"/>
</linearGradient>
<linearGradient id="paint1_linear_40_2" x1="72.75" y1="26.5" x2="72.75" y2="42.5" gradientUnits="userSpaceOnUse">
<stop stop-color="#007AFF"/>
<stop offset="1" stop-color="white"/>
</linearGradient>
<linearGradient id="paint2_linear_40_2" x1="68.8765" y1="52.144" x2="84.3313" y2="48.0029" gradientUnits="userSpaceOnUse">
<stop stop-color="#007AFF"/>
<stop offset="1" stop-color="white"/>
</linearGradient>
<linearGradient id="paint3_linear_40_2" x1="80.0107" y1="18.932" x2="80.0107" y2="33.0889" gradientUnits="userSpaceOnUse">
<stop stop-color="#1167A4"/>
<stop offset="1" stop-color="#1EB6F7"/>
</linearGradient>
<linearGradient id="paint4_linear_40_2" x1="65.0205" y1="36.5208" x2="65.0205" y2="53.5208" gradientUnits="userSpaceOnUse">
<stop stop-color="#1167A4"/>
<stop offset="1" stop-color="#1EB6F7"/>
</linearGradient>
<linearGradient id="paint5_linear_40_2" x1="88.0205" y1="46.5208" x2="88.0205" y2="63.5208" gradientUnits="userSpaceOnUse">
<stop stop-color="#1167A4"/>
<stop offset="1" stop-color="#1EB6F7"/>
</linearGradient>
</defs>
</svg>
